<svg width="35" height="48" viewBox="0 0 35 48" fill="none" xmlns="http://www.w3.org/2000/svg">
<path d="M29.0945 32.3709C29.087 33.8108 28.8267 35.1268 28.3138 36.3187C27.8277 37.4843 27.1158 38.4864 26.1782 39.3248C25.2406 40.1366 24.1041 40.7585 22.7685 41.1905C21.433 41.6226 19.9253 41.8252 18.2455 41.7984C16.5657 41.7716 15.0604 41.5209 13.7297 41.0463C12.3989 40.5717 11.269 39.9136 10.3402 39.0721C9.41143 38.2039 8.69684 37.1791 8.19639 35.9977C7.72275 34.79 7.4897 33.4662 7.49726 32.0262L7.57743 16.7465C7.871 16.6978 8.33796 16.6386 8.9783 16.5688C9.61878 16.4723 10.2323 16.4288 10.8189 16.4382C11.4322 16.4479 11.9651 16.5098 12.4179 16.6237C12.8974 16.7113 13.2965 16.8777 13.6152 17.1228C13.9339 17.3679 14.1721 17.7051 14.3299 18.1343C14.4876 18.5635 14.5646 19.1248 14.561 19.8181L14.497 32.0179C14.4903 33.2979 14.8317 34.3034 15.5211 35.0345C16.2373 35.766 17.1553 36.1406 18.2751 36.1585C19.4216 36.1768 20.3434 35.8315 21.0404 35.1225C21.7374 34.4136 22.0893 33.4192 22.096 32.1392L22.1756 16.9794C22.4691 16.9307 22.9361 16.8715 23.5764 16.8017C24.2169 16.7053 24.8305 16.6617 25.417 16.6711C26.0303 16.6809 26.5633 16.7427 27.016 16.8566C27.4955 16.9443 27.8946 17.1106 28.2133 17.3557C28.532 17.6008 28.7703 17.938 28.928 18.3672C29.0857 18.7964 29.1628 19.3577 29.1592 20.051L29.0945 32.3709Z" fill="#00FFA3"/>
<path d="M28.3138 36.3187L26.4756 35.5113L26.4712 35.5216L26.4669 35.5319L28.3138 36.3187ZM26.1782 39.3248L27.4962 40.8431L27.5081 40.8328L27.5198 40.8224L26.1782 39.3248ZM22.7685 41.1905L23.4023 43.0943L22.7685 41.1905ZM13.7297 41.0463L13.076 42.9296L13.076 42.9296L13.7297 41.0463ZM10.3402 39.0721L8.98306 40.5266L8.99465 40.5374L9.00641 40.5481L10.3402 39.0721ZM8.19639 35.9977L6.33578 36.7108L6.34572 36.7362L6.35634 36.7613L8.19639 35.9977ZM7.57743 16.7465L7.23002 14.773L5.58644 15.0454L5.57768 16.7146L7.57743 16.7465ZM8.9783 16.5688L9.21592 18.5573L9.25643 18.5529L9.29671 18.5468L8.9783 16.5688ZM12.4179 16.6237L11.9496 18.5632L12.0138 18.5793L12.0788 18.5912L12.4179 16.6237ZM13.6152 17.1228L14.8234 15.542L14.8234 15.542L13.6152 17.1228ZM14.3299 18.1343L12.4537 18.8067L12.4537 18.8067L14.3299 18.1343ZM15.5211 35.0345L14.0734 36.3988L14.0864 36.4126L14.0997 36.4261L15.5211 35.0345ZM21.0404 35.1225L19.6072 33.7123L19.6072 33.7123L21.0404 35.1225ZM22.1756 16.9794L21.8282 15.006L20.1846 15.2784L20.1758 16.9475L22.1756 16.9794ZM23.5764 16.8017L23.8141 18.7902L23.8546 18.7858L23.8948 18.7797L23.5764 16.8017ZM27.016 16.8566L26.5478 18.7961L26.6119 18.8122L26.6769 18.8241L27.016 16.8566ZM28.2133 17.3557L27.0051 18.9366L27.0051 18.9366L28.2133 17.3557ZM28.928 18.3672L27.0519 19.0396L27.0519 19.0396L28.928 18.3672ZM27.0948 32.3389C27.0885 33.54 26.8727 34.5886 26.4756 35.5113L30.152 37.126C30.7807 35.665 31.0854 34.0817 31.0943 32.4028L27.0948 32.3389ZM26.4669 35.5319C26.094 36.4263 25.5544 37.1854 24.8365 37.8272L27.5198 40.8224C28.6773 39.7874 29.5615 38.5424 30.1607 37.1055L26.4669 35.5319ZM24.8601 37.8065C24.1466 38.4243 23.2509 38.9257 22.1347 39.2867L23.4023 43.0943C24.9572 42.5913 26.3346 41.8488 27.4962 40.8431L24.8601 37.8065ZM22.1347 39.2867C21.0425 39.6401 19.7579 39.8224 18.256 39.7984L18.235 43.7984C20.0927 43.828 21.8234 43.6051 23.4023 43.0943L22.1347 39.2867ZM18.256 39.7984C16.7541 39.7745 15.4717 39.5512 14.3833 39.1631L13.076 42.9296C14.6492 43.4906 16.3773 43.7688 18.235 43.7984L18.256 39.7984ZM14.3833 39.1631C13.2711 38.7664 12.3809 38.2366 11.6739 37.5961L9.00641 40.5481C10.1572 41.5907 11.5266 42.377 13.076 42.9296L14.3833 39.1631ZM11.6973 37.6176C10.9784 36.9456 10.4274 36.157 10.0364 35.2341L6.35634 36.7613C6.96628 38.2011 7.84442 39.4622 8.98306 40.5266L11.6973 37.6176ZM10.057 35.2845C9.68668 34.3403 9.49063 33.2727 9.49701 32.0582L5.49751 31.9943C5.48878 33.6598 5.75882 35.2398 6.33578 36.7108L10.057 35.2845ZM9.49701 32.0582L9.57717 16.7784L5.57768 16.7146L5.49751 31.9943L9.49701 32.0582ZM7.92484 18.7199C8.16009 18.6809 8.58032 18.6266 9.21592 18.5573L8.74068 14.5803C8.09561 14.6506 7.58192 14.7147 7.23002 14.773L7.92484 18.7199ZM9.29671 18.5468C9.83972 18.465 10.3428 18.4307 10.8084 18.4381L10.8294 14.4382C10.1218 14.4269 9.39784 14.4797 8.65989 14.5908L9.29671 18.5468ZM10.8084 18.4381C11.313 18.4462 11.6854 18.4967 11.9496 18.5632L12.8861 14.6842C12.2449 14.5229 11.5513 14.4497 10.8294 14.4382L10.8084 18.4381ZM12.0788 18.5912C12.3101 18.6335 12.3931 18.693 12.407 18.7037L14.8234 15.542C14.1999 15.0624 13.4847 14.7892 12.757 14.6562L12.0788 18.5912ZM12.4069 18.7036C12.4006 18.6987 12.3991 18.6954 12.4039 18.7022C12.4098 18.7105 12.4296 18.7409 12.4537 18.8067L16.206 17.4619C15.935 16.7247 15.4869 16.0522 14.8234 15.542L12.4069 18.7036ZM12.4537 18.8067C12.4969 18.9242 12.5642 19.2206 12.5613 19.7862L16.5608 19.85C16.5651 19.0289 16.4782 18.2028 16.206 17.4619L12.4537 18.8067ZM12.5613 19.7862L12.4973 31.986L16.4967 32.0498L16.5608 19.85L12.5613 19.7862ZM12.4973 31.986C12.4886 33.6322 12.9348 35.1915 14.0734 36.3988L16.9689 33.6702C16.7285 33.4153 16.4919 32.9637 16.4967 32.0498L12.4973 31.986ZM14.0997 36.4261C15.2279 37.5785 16.6726 38.1331 18.2646 38.1585L18.2856 34.1585C17.6379 34.1482 17.2466 33.9534 16.9426 33.6428L14.0997 36.4261ZM18.2646 38.1585C19.8673 38.184 21.3407 37.685 22.4736 36.5328L19.6072 33.7123C19.3461 33.9779 18.976 34.1695 18.2856 34.1585L18.2646 38.1585ZM22.4736 36.5328C23.6246 35.3621 24.0871 33.8172 24.0958 32.1711L20.0963 32.1073C20.0915 33.0211 19.8503 33.4651 19.6072 33.7123L22.4736 36.5328ZM24.0958 32.1711L24.1753 17.0113L20.1758 16.9475L20.0963 32.1073L24.0958 32.1711ZM22.523 18.9528C22.7582 18.9138 23.1785 18.8595 23.8141 18.7902L23.3388 14.8132C22.6938 14.8835 22.1801 14.9476 21.8282 15.006L22.523 18.9528ZM23.8948 18.7797C24.4379 18.698 24.941 18.6636 25.4066 18.6711L25.4275 14.6711C24.7199 14.6598 23.996 14.7126 23.258 14.8237L23.8948 18.7797ZM25.4066 18.6711C25.9111 18.6791 26.2836 18.7296 26.5478 18.7961L27.4842 14.9171C26.843 14.7558 26.1495 14.6826 25.4275 14.6711L25.4066 18.6711ZM26.6769 18.8241C26.9082 18.8664 26.9912 18.9259 27.0051 18.9366L29.4216 15.7749C28.798 15.2954 28.0828 15.0221 27.3551 14.8891L26.6769 18.8241ZM27.0051 18.9366C26.9987 18.9317 26.9972 18.9283 27.002 18.9351C27.0079 18.9435 27.0277 18.9738 27.0519 19.0396L30.8041 17.6949C30.5331 16.9576 30.085 16.2851 29.4216 15.7749L27.0051 18.9366ZM27.0519 19.0396C27.0951 19.1571 27.1624 19.4535 27.1594 20.0191L31.1589 20.0829C31.1632 19.2619 31.0764 18.4357 30.8041 17.6949L27.0519 19.0396ZM27.1594 20.0191L27.0948 32.3389L31.0943 32.4028L31.1589 20.0829L27.1594 20.0191Z" fill="#FFDB1E"/>
<path d="M12.6613 0.901875C14.6613 0.901875 16.3679 1.26187 17.7813 1.98188C19.1946 2.72854 20.2746 3.76854 21.0213 5.10188C21.7413 6.46188 22.1013 8.03521 22.1013 9.82188V13.1019H18.8613V10.1019C18.8613 7.96854 18.2746 6.35521 17.1013 5.26188C15.9013 4.19521 14.4213 3.66188 12.6613 3.66188C10.9013 3.66188 9.4346 4.19521 8.26127 5.26188C7.06127 6.35521 6.46127 7.96854 6.46127 10.1019V13.1019L3.18127 13.1019V9.82188C3.18127 8.03521 3.5546 6.46188 4.30127 5.10188C5.02127 3.76854 6.08793 2.72854 7.50127 1.98188C8.9146 1.26187 10.6346 0.901875 12.6613 0.901875ZM18.8613 11.4619H22.1013V25.6619C21.9679 25.7152 21.7679 25.7685 21.5013 25.8219C21.2079 25.9019 20.9013 25.9419 20.5813 25.9419C19.9946 25.9419 19.5679 25.8219 19.3013 25.5819C19.0079 25.3685 18.8613 24.9952 18.8613 24.4619V11.4619ZM3.18127 11.4619L6.46127 11.4619V25.6619C6.32793 25.7152 6.12793 25.7685 5.86127 25.8219C5.56794 25.9019 5.26127 25.9419 4.94127 25.9419C4.3546 25.9419 3.9146 25.8219 3.62127 25.5819C3.32793 25.3685 3.18127 24.9952 3.18127 24.4619V11.4619Z" fill="#FFDB1E"/>
<path d="M17.7813 1.98188L18.7155 0.213488L18.7024 0.206544L18.6891 0.199796L17.7813 1.98188ZM21.0213 5.10188L22.7888 4.1661L22.7778 4.14525L22.7663 4.12467L21.0213 5.10188ZM22.1013 13.1019V15.1019H24.1013V13.1019H22.1013ZM18.8613 13.1019L16.8613 13.1019V15.1019L18.8613 15.1019V13.1019ZM17.1013 5.26188L18.4647 3.79866L18.4475 3.78265L18.43 3.76706L17.1013 5.26188ZM8.26127 5.26188L6.91592 3.78199L6.91429 3.78348L8.26127 5.26188ZM6.46127 13.1019V15.1019H8.46127V13.1019H6.46127ZM3.18127 13.1019H1.18127V15.1019H3.18127V13.1019ZM4.30127 5.10188L6.05447 6.06442L6.06108 6.05217L4.30127 5.10188ZM7.50127 1.98188L6.59342 0.199796L6.58017 0.206544L6.56703 0.213488L7.50127 1.98188ZM18.8613 11.4619V9.46188L16.8613 9.46188V11.4619L18.8613 11.4619ZM22.1013 11.4619H24.1013V9.46188H22.1013V11.4619ZM22.1013 25.6619L22.8441 27.5188L24.1013 27.0159V25.6619H22.1013ZM21.5013 25.8219L21.109 23.8607L21.0415 23.8742L20.975 23.8923L21.5013 25.8219ZM19.3013 25.5819L20.6392 24.0953L20.5618 24.0256L20.4776 23.9644L19.3013 25.5819ZM3.18127 11.4619V9.46188H1.18127V11.4619H3.18127ZM6.46127 11.4619H8.46127V9.46188H6.46127V11.4619ZM6.46127 25.6619L7.20406 27.5188L8.46127 27.0159V25.6619H6.46127ZM5.86127 25.8219L5.46904 23.8607L5.40149 23.8742L5.33503 23.8923L5.86127 25.8219ZM3.62127 25.5819L4.88775 24.034L4.84367 23.9979L4.79761 23.9644L3.62127 25.5819ZM12.6613 2.90187C14.426 2.90187 15.805 3.21968 16.8734 3.76395L18.6891 0.199796C16.9308 -0.695931 14.8965 -1.09813 12.6613 -1.09813L12.6613 2.90187ZM16.847 3.75026C17.936 4.32557 18.7269 5.09802 19.2763 6.07908L22.7663 4.12467C21.8223 2.43906 20.4532 1.13151 18.7155 0.213488L16.847 3.75026ZM19.2537 6.03765C19.7982 7.06608 20.1013 8.30867 20.1013 9.82188H24.1013C24.1013 7.76174 23.6844 5.85767 22.7888 4.1661L19.2537 6.03765ZM20.1013 9.82188V13.1019H24.1013V9.82188H20.1013ZM22.1013 11.1019H18.8613V15.1019H22.1013V11.1019ZM20.8613 13.1019V10.1019L16.8613 10.1019V13.1019L20.8613 13.1019ZM20.8613 10.1019C20.8613 7.60521 20.1657 5.38365 18.4647 3.79866L15.7378 6.72509C16.3835 7.32677 16.8613 8.33187 16.8613 10.1019L20.8613 10.1019ZM18.43 3.76706C16.8275 2.34266 14.8602 1.66188 12.6613 1.66188L12.6613 5.66188C13.9824 5.66188 14.975 6.04776 15.7725 6.75669L18.43 3.76706ZM12.6613 1.66188C10.4628 1.66188 8.49889 2.34294 6.91592 3.78199L9.60661 6.74176C10.3703 6.04748 11.3397 5.66188 12.6613 5.66188L12.6613 1.66188ZM6.91429 3.78348C5.1781 5.36534 4.46127 7.59213 4.46127 10.1019H8.46127C8.46127 8.34495 8.94444 7.34507 9.60825 6.74027L6.91429 3.78348ZM4.46127 10.1019V13.1019H8.46127V10.1019H4.46127ZM6.46127 11.1019L3.18127 11.1019V15.1019L6.46127 15.1019V11.1019ZM5.18127 13.1019V9.82188L1.18127 9.82188V13.1019L5.18127 13.1019ZM5.18127 9.82188C5.18127 8.32022 5.49279 7.08737 6.05442 6.06439L2.54811 4.13936C1.61641 5.83638 1.18127 7.7502 1.18127 9.82188L5.18127 9.82188ZM6.06108 6.05217C6.58235 5.08686 7.35204 4.32266 8.43551 3.75026L6.56703 0.213488C4.82383 1.13442 3.46019 2.45022 2.54146 4.15158L6.06108 6.05217ZM8.40912 3.76395C9.47414 3.2214 10.8651 2.90187 12.6613 2.90187L12.6613 -1.09813C10.4042 -1.09813 8.35507 -0.697649 6.59342 0.199796L8.40912 3.76395ZM18.8613 13.4619H22.1013V9.46188H18.8613V13.4619ZM20.1013 11.4619V25.6619H24.1013V11.4619H20.1013ZM21.3585 23.8049C21.3905 23.7921 21.3892 23.7952 21.3359 23.8094C21.287 23.8225 21.213 23.8399 21.109 23.8607L21.8935 27.783C22.194 27.7229 22.5377 27.6414 22.8441 27.5188L21.3585 23.8049ZM20.975 23.8923C20.862 23.9232 20.7328 23.9419 20.5813 23.9419V27.9419C21.0697 27.9419 21.5539 27.8806 22.0275 27.7514L20.975 23.8923ZM20.5813 23.9419C20.5018 23.9419 20.4445 23.9378 20.4065 23.9333C20.3682 23.9287 20.3554 23.9245 20.3628 23.9266C20.3769 23.9305 20.4969 23.9672 20.6392 24.0953L17.9633 27.0685C18.7693 27.7938 19.7952 27.9419 20.5813 27.9419V23.9419ZM20.4776 23.9644C20.6712 24.1052 20.7821 24.2815 20.8328 24.4106C20.8757 24.5197 20.8613 24.5561 20.8613 24.4619H16.8613C16.8613 25.3188 17.1027 26.4559 18.1249 27.1993L20.4776 23.9644ZM20.8613 24.4619V11.4619L16.8613 11.4619V24.4619H20.8613ZM3.18127 13.4619L6.46127 13.4619V9.46188L3.18127 9.46188V13.4619ZM4.46127 11.4619V25.6619H8.46127V11.4619H4.46127ZM5.71848 23.8049C5.75054 23.7921 5.74922 23.7952 5.69594 23.8094C5.64697 23.8225 5.57303 23.8399 5.46904 23.8607L6.2535 27.783C6.55403 27.7229 6.8977 27.6414 7.20406 27.5188L5.71848 23.8049ZM5.33503 23.8923C5.22197 23.9232 5.09283 23.9419 4.94127 23.9419V27.9419C5.42971 27.9419 5.9139 27.8806 6.38751 27.7514L5.33503 23.8923ZM4.94127 23.9419C4.86204 23.9419 4.80275 23.9378 4.76095 23.9329C4.71908 23.928 4.69933 23.9228 4.6975 23.9223C4.69425 23.9215 4.77764 23.9439 4.88775 24.034L2.35479 27.1298C3.15517 27.7846 4.1329 27.9419 4.94127 27.9419V23.9419ZM4.79761 23.9644C4.99119 24.1052 5.10206 24.2815 5.15277 24.4106C5.19566 24.5197 5.18127 24.5561 5.18127 24.4619H1.18127C1.18127 25.3188 1.42271 26.4559 2.44493 27.1993L4.79761 23.9644ZM5.18127 24.4619V11.4619L1.18127 11.4619V24.4619H5.18127Z" fill="#00FFA3"/>
</svg>
