<svg width="124" height="62" viewBox="0 0 124 62" fill="none" xmlns="http://www.w3.org/2000/svg">
<path d="M52.3497 47H42.9897L55.7097 13.4H65.3097L78.0297 47H68.6697L66.5097 41H54.5097L52.3497 47ZM56.6697 34.76H64.3497L60.5097 23.48L56.6697 34.76ZM103.01 13.4H111.65V37.88C111.65 41.24 110.882 43.688 109.346 45.224C107.842 46.728 105.41 47.48 102.05 47.48H91.0103C87.6503 47.48 85.2023 46.728 83.6663 45.224C82.1623 43.688 81.4103 41.24 81.4103 37.88V13.4H90.0503V37.88C90.0503 39.8 91.0103 40.76 92.9303 40.76H100.13C102.05 40.76 103.01 39.8 103.01 37.88V13.4Z" fill="white"/>
<path d="M52.3497 47V48H53.0525L53.2906 47.3387L52.3497 47ZM42.9897 47L42.0545 46.6459L41.5419 48H42.9897V47ZM55.7097 13.4V12.4H55.019L54.7745 13.0459L55.7097 13.4ZM65.3097 13.4L66.2449 13.0459L66.0004 12.4H65.3097V13.4ZM78.0297 47V48H79.4775L78.9649 46.6459L78.0297 47ZM68.6697 47L67.7288 47.3387L67.9669 48H68.6697V47ZM66.5097 41L67.4506 40.6613L67.2125 40H66.5097V41ZM54.5097 41V40H53.8069L53.5688 40.6613L54.5097 41ZM56.6697 34.76L55.723 34.4377L55.2729 35.76H56.6697V34.76ZM64.3497 34.76V35.76H65.7465L65.2963 34.4377L64.3497 34.76ZM60.5097 23.48L61.4563 23.1577L60.5097 20.377L59.563 23.1577L60.5097 23.48ZM52.3497 46H42.9897V48H52.3497V46ZM43.9249 47.3541L56.6449 13.754L54.7745 13.0459L42.0545 46.6459L43.9249 47.3541ZM55.7097 14.4H65.3097V12.4H55.7097V14.4ZM64.3745 13.754L77.0945 47.3541L78.9649 46.6459L66.2449 13.0459L64.3745 13.754ZM78.0297 46H68.6697V48H78.0297V46ZM69.6106 46.6613L67.4506 40.6613L65.5688 41.3387L67.7288 47.3387L69.6106 46.6613ZM66.5097 40H54.5097V42H66.5097V40ZM53.5688 40.6613L51.4088 46.6613L53.2906 47.3387L55.4506 41.3387L53.5688 40.6613ZM56.6697 35.76H64.3497V33.76H56.6697V35.76ZM65.2963 34.4377L61.4563 23.1577L59.563 23.8023L63.403 35.0823L65.2963 34.4377ZM59.563 23.1577L55.723 34.4377L57.6163 35.0823L61.4563 23.8023L59.563 23.1577ZM103.01 13.4V12.4H102.01V13.4H103.01ZM111.65 13.4H112.65V12.4H111.65V13.4ZM109.346 45.224L108.639 44.5169L108.639 44.5169L109.346 45.224ZM83.6663 45.224L82.9518 45.9236L82.9592 45.9311L82.9667 45.9385L83.6663 45.224ZM81.4103 13.4V12.4H80.4103V13.4H81.4103ZM90.0503 13.4H91.0503V12.4H90.0503V13.4ZM103.01 14.4H111.65V12.4H103.01V14.4ZM110.65 13.4V37.88H112.65V13.4H110.65ZM110.65 37.88C110.65 41.1163 109.907 43.2491 108.639 44.5169L110.053 45.9311C111.858 44.1269 112.65 41.3637 112.65 37.88H110.65ZM108.639 44.5169C107.407 45.7494 105.294 46.48 102.05 46.48V48.48C105.527 48.48 108.278 47.7066 110.053 45.9311L108.639 44.5169ZM102.05 46.48H91.0103V48.48H102.05V46.48ZM91.0103 46.48C87.7692 46.48 85.6332 45.7504 84.3659 44.5095L82.9667 45.9385C84.7714 47.7056 87.5314 48.48 91.0103 48.48V46.48ZM84.3808 44.5244C83.1399 43.2571 82.4103 41.1211 82.4103 37.88H80.4103C80.4103 41.3589 81.1847 44.1189 82.9518 45.9236L84.3808 44.5244ZM82.4103 37.88V13.4H80.4103V37.88H82.4103ZM81.4103 14.4H90.0503V12.4H81.4103V14.4ZM89.0503 13.4V37.88H91.0503V13.4H89.0503ZM89.0503 37.88C89.0503 38.9941 89.3295 40.0134 90.0632 40.7471C90.7969 41.4808 91.8162 41.76 92.9303 41.76V39.76C92.1245 39.76 91.7037 39.5592 91.4774 39.3329C91.2511 39.1066 91.0503 38.6859 91.0503 37.88H89.0503ZM92.9303 41.76H100.13V39.76H92.9303V41.76ZM100.13 41.76C101.244 41.76 102.264 41.4808 102.997 40.7471C103.731 40.0134 104.01 38.9941 104.01 37.88H102.01C102.01 38.6859 101.81 39.1066 101.583 39.3329C101.357 39.5592 100.936 39.76 100.13 39.76V41.76ZM104.01 37.88V13.4H102.01V37.88H104.01Z" fill="black"/>
<path d="M29.0945 39.3709C29.087 40.8108 28.8267 42.1268 28.3138 43.3187C27.8277 44.4843 27.1158 45.4864 26.1782 46.3248C25.2406 47.1366 24.1041 47.7585 22.7685 48.1905C21.433 48.6226 19.9253 48.8252 18.2455 48.7984C16.5657 48.7716 15.0604 48.5209 13.7297 48.0463C12.3989 47.5717 11.269 46.9136 10.3402 46.0721C9.41143 45.2039 8.69684 44.1791 8.19639 42.9977C7.72275 41.79 7.4897 40.4662 7.49726 39.0262L7.57743 23.7465C7.871 23.6978 8.33796 23.6386 8.9783 23.5688C9.61878 23.4723 10.2323 23.4288 10.8189 23.4382C11.4322 23.4479 11.9651 23.5098 12.4179 23.6237C12.8974 23.7113 13.2965 23.8777 13.6152 24.1228C13.9339 24.3679 14.1721 24.7051 14.3299 25.1343C14.4876 25.5635 14.5646 26.1248 14.561 26.8181L14.497 39.0179C14.4903 40.2979 14.8317 41.3034 15.5211 42.0345C16.2373 42.766 17.1553 43.1406 18.2751 43.1585C19.4216 43.1768 20.3434 42.8315 21.0404 42.1225C21.7374 41.4136 22.0893 40.4192 22.096 39.1392L22.1756 23.9794C22.4691 23.9307 22.9361 23.8715 23.5764 23.8017C24.2169 23.7053 24.8305 23.6617 25.417 23.6711C26.0303 23.6809 26.5633 23.7427 27.016 23.8566C27.4955 23.9443 27.8946 24.1106 28.2133 24.3557C28.532 24.6008 28.7703 24.938 28.928 25.3672C29.0857 25.7964 29.1628 26.3577 29.1592 27.051L29.0945 39.3709Z" fill="#00FFA3"/>
<path d="M28.3138 43.3187L26.4756 42.5113L26.4712 42.5216L26.4669 42.5319L28.3138 43.3187ZM26.1782 46.3248L27.4962 47.8431L27.5081 47.8328L27.5198 47.8224L26.1782 46.3248ZM22.7685 48.1905L23.4023 50.0943L22.7685 48.1905ZM13.7297 48.0463L13.076 49.9296L13.076 49.9296L13.7297 48.0463ZM10.3402 46.0721L8.98306 47.5266L8.99465 47.5374L9.00641 47.5481L10.3402 46.0721ZM8.19639 42.9977L6.33578 43.7108L6.34572 43.7362L6.35634 43.7613L8.19639 42.9977ZM7.57743 23.7465L7.23002 21.773L5.58644 22.0454L5.57768 23.7146L7.57743 23.7465ZM8.9783 23.5688L9.21592 25.5573L9.25643 25.5529L9.29671 25.5468L8.9783 23.5688ZM12.4179 23.6237L11.9496 25.5632L12.0138 25.5793L12.0788 25.5912L12.4179 23.6237ZM13.6152 24.1228L14.8234 22.542L14.8234 22.542L13.6152 24.1228ZM14.3299 25.1343L12.4537 25.8067L12.4537 25.8067L14.3299 25.1343ZM15.5211 42.0345L14.0734 43.3988L14.0864 43.4126L14.0997 43.4261L15.5211 42.0345ZM21.0404 42.1225L19.6072 40.7123L19.6072 40.7123L21.0404 42.1225ZM22.1756 23.9794L21.8282 22.006L20.1846 22.2784L20.1758 23.9475L22.1756 23.9794ZM23.5764 23.8017L23.8141 25.7902L23.8546 25.7858L23.8948 25.7797L23.5764 23.8017ZM27.016 23.8566L26.5478 25.7961L26.6119 25.8122L26.6769 25.8241L27.016 23.8566ZM28.2133 24.3557L27.0051 25.9366L27.0051 25.9366L28.2133 24.3557ZM28.928 25.3672L27.0519 26.0396L27.0519 26.0396L28.928 25.3672ZM27.0948 39.3389C27.0885 40.54 26.8727 41.5886 26.4756 42.5113L30.152 44.126C30.7807 42.665 31.0854 41.0817 31.0943 39.4028L27.0948 39.3389ZM26.4669 42.5319C26.094 43.4263 25.5544 44.1854 24.8365 44.8272L27.5198 47.8224C28.6773 46.7874 29.5615 45.5424 30.1607 44.1055L26.4669 42.5319ZM24.8601 44.8065C24.1466 45.4243 23.2509 45.9257 22.1347 46.2867L23.4023 50.0943C24.9572 49.5913 26.3346 48.8488 27.4962 47.8431L24.8601 44.8065ZM22.1347 46.2867C21.0425 46.6401 19.7579 46.8224 18.256 46.7984L18.235 50.7984C20.0927 50.828 21.8234 50.6051 23.4023 50.0943L22.1347 46.2867ZM18.256 46.7984C16.7541 46.7745 15.4717 46.5512 14.3833 46.1631L13.076 49.9296C14.6492 50.4906 16.3773 50.7688 18.235 50.7984L18.256 46.7984ZM14.3833 46.1631C13.2711 45.7664 12.3809 45.2366 11.6739 44.5961L9.00641 47.5481C10.1572 48.5907 11.5266 49.377 13.076 49.9296L14.3833 46.1631ZM11.6973 44.6176C10.9784 43.9456 10.4274 43.157 10.0364 42.2341L6.35634 43.7613C6.96628 45.2011 7.84442 46.4622 8.98306 47.5266L11.6973 44.6176ZM10.057 42.2845C9.68668 41.3403 9.49063 40.2727 9.49701 39.0582L5.49751 38.9943C5.48878 40.6598 5.75882 42.2398 6.33578 43.7108L10.057 42.2845ZM9.49701 39.0582L9.57717 23.7784L5.57768 23.7146L5.49751 38.9943L9.49701 39.0582ZM7.92484 25.7199C8.16009 25.6809 8.58032 25.6266 9.21592 25.5573L8.74068 21.5803C8.09561 21.6506 7.58192 21.7147 7.23002 21.773L7.92484 25.7199ZM9.29671 25.5468C9.83972 25.465 10.3428 25.4307 10.8084 25.4381L10.8294 21.4382C10.1218 21.4269 9.39784 21.4797 8.65989 21.5908L9.29671 25.5468ZM10.8084 25.4381C11.313 25.4462 11.6854 25.4967 11.9496 25.5632L12.8861 21.6842C12.2449 21.5229 11.5513 21.4497 10.8294 21.4382L10.8084 25.4381ZM12.0788 25.5912C12.3101 25.6335 12.3931 25.693 12.407 25.7037L14.8234 22.542C14.1999 22.0624 13.4847 21.7892 12.757 21.6562L12.0788 25.5912ZM12.4069 25.7036C12.4006 25.6987 12.3991 25.6954 12.4039 25.7022C12.4098 25.7105 12.4296 25.7409 12.4537 25.8067L16.206 24.4619C15.935 23.7247 15.4869 23.0522 14.8234 22.542L12.4069 25.7036ZM12.4537 25.8067C12.4969 25.9242 12.5642 26.2206 12.5613 26.7862L16.5608 26.85C16.5651 26.0289 16.4782 25.2028 16.206 24.4619L12.4537 25.8067ZM12.5613 26.7862L12.4973 38.986L16.4967 39.0498L16.5608 26.85L12.5613 26.7862ZM12.4973 38.986C12.4886 40.6322 12.9348 42.1915 14.0734 43.3988L16.9689 40.6702C16.7285 40.4153 16.4919 39.9637 16.4967 39.0498L12.4973 38.986ZM14.0997 43.4261C15.2279 44.5785 16.6726 45.1331 18.2646 45.1585L18.2856 41.1585C17.6379 41.1482 17.2466 40.9534 16.9426 40.6428L14.0997 43.4261ZM18.2646 45.1585C19.8673 45.184 21.3407 44.685 22.4736 43.5328L19.6072 40.7123C19.3461 40.9779 18.976 41.1695 18.2856 41.1585L18.2646 45.1585ZM22.4736 43.5328C23.6246 42.3621 24.0871 40.8172 24.0958 39.1711L20.0963 39.1073C20.0915 40.0211 19.8503 40.4651 19.6072 40.7123L22.4736 43.5328ZM24.0958 39.1711L24.1753 24.0113L20.1758 23.9475L20.0963 39.1073L24.0958 39.1711ZM22.523 25.9528C22.7582 25.9138 23.1785 25.8595 23.8141 25.7902L23.3388 21.8132C22.6938 21.8835 22.1801 21.9476 21.8282 22.006L22.523 25.9528ZM23.8948 25.7797C24.4379 25.698 24.941 25.6636 25.4066 25.6711L25.4275 21.6711C24.7199 21.6598 23.996 21.7126 23.258 21.8237L23.8948 25.7797ZM25.4066 25.6711C25.9111 25.6791 26.2836 25.7296 26.5478 25.7961L27.4842 21.9171C26.843 21.7558 26.1495 21.6826 25.4275 21.6711L25.4066 25.6711ZM26.6769 25.8241C26.9082 25.8664 26.9912 25.9259 27.0051 25.9366L29.4216 22.7749C28.798 22.2954 28.0828 22.0221 27.3551 21.8891L26.6769 25.8241ZM27.0051 25.9366C26.9987 25.9317 26.9972 25.9283 27.002 25.9351C27.0079 25.9435 27.0277 25.9738 27.0519 26.0396L30.8041 24.6949C30.5331 23.9576 30.085 23.2851 29.4216 22.7749L27.0051 25.9366ZM27.0519 26.0396C27.0951 26.1571 27.1624 26.4535 27.1594 27.0191L31.1589 27.0829C31.1632 26.2619 31.0764 25.4357 30.8041 24.6949L27.0519 26.0396ZM27.1594 27.0191L27.0948 39.3389L31.0943 39.4028L31.1589 27.0829L27.1594 27.0191Z" fill="#FFDB1E"/>
<path d="M12.6613 7.90187C14.6613 7.90187 16.3679 8.26187 17.7813 8.98188C19.1946 9.72854 20.2746 10.7685 21.0213 12.1019C21.7413 13.4619 22.1013 15.0352 22.1013 16.8219V20.1019H18.8613V17.1019C18.8613 14.9685 18.2746 13.3552 17.1013 12.2619C15.9013 11.1952 14.4213 10.6619 12.6613 10.6619C10.9013 10.6619 9.4346 11.1952 8.26127 12.2619C7.06127 13.3552 6.46127 14.9685 6.46127 17.1019V20.1019L3.18127 20.1019V16.8219C3.18127 15.0352 3.5546 13.4619 4.30127 12.1019C5.02127 10.7685 6.08793 9.72854 7.50127 8.98188C8.9146 8.26187 10.6346 7.90187 12.6613 7.90187ZM18.8613 18.4619H22.1013V32.6619C21.9679 32.7152 21.7679 32.7685 21.5013 32.8219C21.2079 32.9019 20.9013 32.9419 20.5813 32.9419C19.9946 32.9419 19.5679 32.8219 19.3013 32.5819C19.0079 32.3685 18.8613 31.9952 18.8613 31.4619V18.4619ZM3.18127 18.4619L6.46127 18.4619V32.6619C6.32793 32.7152 6.12793 32.7685 5.86127 32.8219C5.56794 32.9019 5.26127 32.9419 4.94127 32.9419C4.3546 32.9419 3.9146 32.8219 3.62127 32.5819C3.32793 32.3685 3.18127 31.9952 3.18127 31.4619V18.4619Z" fill="#FFDB1E"/>
<path d="M17.7813 8.98188L18.7155 7.21349L18.7024 7.20654L18.6891 7.1998L17.7813 8.98188ZM21.0213 12.1019L22.7888 11.1661L22.7778 11.1453L22.7663 11.1247L21.0213 12.1019ZM22.1013 20.1019V22.1019H24.1013V20.1019H22.1013ZM18.8613 20.1019H16.8613V22.1019H18.8613V20.1019ZM17.1013 12.2619L18.4647 10.7987L18.4475 10.7827L18.43 10.7671L17.1013 12.2619ZM8.26127 12.2619L6.91592 10.782L6.91429 10.7835L8.26127 12.2619ZM6.46127 20.1019V22.1019H8.46127V20.1019H6.46127ZM3.18127 20.1019H1.18127V22.1019H3.18127V20.1019ZM4.30127 12.1019L6.05447 13.0644L6.06108 13.0522L4.30127 12.1019ZM7.50127 8.98188L6.59342 7.1998L6.58017 7.20654L6.56703 7.21349L7.50127 8.98188ZM18.8613 18.4619V16.4619H16.8613V18.4619H18.8613ZM22.1013 18.4619H24.1013V16.4619H22.1013V18.4619ZM22.1013 32.6619L22.8441 34.5188L24.1013 34.0159V32.6619H22.1013ZM21.5013 32.8219L21.109 30.8607L21.0415 30.8742L20.975 30.8923L21.5013 32.8219ZM19.3013 32.5819L20.6392 31.0953L20.5618 31.0256L20.4776 30.9644L19.3013 32.5819ZM3.18127 18.4619V16.4619H1.18127V18.4619H3.18127ZM6.46127 18.4619H8.46127V16.4619H6.46127V18.4619ZM6.46127 32.6619L7.20406 34.5188L8.46127 34.0159V32.6619H6.46127ZM5.86127 32.8219L5.46904 30.8607L5.40149 30.8742L5.33503 30.8923L5.86127 32.8219ZM3.62127 32.5819L4.88775 31.034L4.84367 30.9979L4.79761 30.9644L3.62127 32.5819ZM12.6613 9.90187C14.426 9.90187 15.805 10.2197 16.8734 10.764L18.6891 7.1998C16.9308 6.30407 14.8965 5.90187 12.6613 5.90187L12.6613 9.90187ZM16.847 10.7503C17.936 11.3256 18.7269 12.098 19.2763 13.0791L22.7663 11.1247C21.8223 9.43906 20.4532 8.13151 18.7155 7.21349L16.847 10.7503ZM19.2537 13.0377C19.7982 14.0661 20.1013 15.3087 20.1013 16.8219H24.1013C24.1013 14.7617 23.6844 12.8577 22.7888 11.1661L19.2537 13.0377ZM20.1013 16.8219V20.1019H24.1013V16.8219H20.1013ZM22.1013 18.1019H18.8613V22.1019H22.1013V18.1019ZM20.8613 20.1019V17.1019H16.8613V20.1019H20.8613ZM20.8613 17.1019C20.8613 14.6052 20.1657 12.3836 18.4647 10.7987L15.7378 13.7251C16.3835 14.3268 16.8613 15.3319 16.8613 17.1019H20.8613ZM18.43 10.7671C16.8275 9.34266 14.8602 8.66188 12.6613 8.66188L12.6613 12.6619C13.9824 12.6619 14.975 13.0478 15.7725 13.7567L18.43 10.7671ZM12.6613 8.66188C10.4628 8.66188 8.49889 9.34294 6.91592 10.782L9.60661 13.7418C10.3703 13.0475 11.3397 12.6619 12.6613 12.6619L12.6613 8.66188ZM6.91429 10.7835C5.1781 12.3653 4.46127 14.5921 4.46127 17.1019H8.46127C8.46127 15.345 8.94444 14.3451 9.60825 13.7403L6.91429 10.7835ZM4.46127 17.1019V20.1019H8.46127V17.1019H4.46127ZM6.46127 18.1019L3.18127 18.1019V22.1019L6.46127 22.1019V18.1019ZM5.18127 20.1019V16.8219L1.18127 16.8219V20.1019L5.18127 20.1019ZM5.18127 16.8219C5.18127 15.3202 5.49279 14.0874 6.05442 13.0644L2.54811 11.1394C1.61641 12.8364 1.18127 14.7502 1.18127 16.8219L5.18127 16.8219ZM6.06108 13.0522C6.58235 12.0869 7.35204 11.3227 8.43551 10.7503L6.56703 7.21349C4.82383 8.13442 3.46019 9.45022 2.54146 11.1516L6.06108 13.0522ZM8.40912 10.764C9.47414 10.2214 10.8651 9.90187 12.6613 9.90187L12.6613 5.90187C10.4042 5.90187 8.35507 6.30235 6.59342 7.1998L8.40912 10.764ZM18.8613 20.4619H22.1013V16.4619H18.8613V20.4619ZM20.1013 18.4619V32.6619H24.1013V18.4619H20.1013ZM21.3585 30.8049C21.3905 30.7921 21.3892 30.7952 21.3359 30.8094C21.287 30.8225 21.213 30.8399 21.109 30.8607L21.8935 34.783C22.194 34.7229 22.5377 34.6414 22.8441 34.5188L21.3585 30.8049ZM20.975 30.8923C20.862 30.9232 20.7328 30.9419 20.5813 30.9419V34.9419C21.0697 34.9419 21.5539 34.8806 22.0275 34.7514L20.975 30.8923ZM20.5813 30.9419C20.5018 30.9419 20.4445 30.9378 20.4065 30.9333C20.3682 30.9287 20.3554 30.9245 20.3628 30.9266C20.3769 30.9305 20.4969 30.9672 20.6392 31.0953L17.9633 34.0685C18.7693 34.7938 19.7952 34.9419 20.5813 34.9419V30.9419ZM20.4776 30.9644C20.6712 31.1052 20.7821 31.2815 20.8328 31.4106C20.8757 31.5197 20.8613 31.5561 20.8613 31.4619H16.8613C16.8613 32.3188 17.1027 33.4559 18.1249 34.1993L20.4776 30.9644ZM20.8613 31.4619V18.4619H16.8613V31.4619H20.8613ZM3.18127 20.4619L6.46127 20.4619V16.4619L3.18127 16.4619V20.4619ZM4.46127 18.4619V32.6619H8.46127V18.4619H4.46127ZM5.71848 30.8049C5.75054 30.7921 5.74922 30.7952 5.69594 30.8094C5.64697 30.8225 5.57303 30.8399 5.46904 30.8607L6.2535 34.783C6.55403 34.7229 6.8977 34.6414 7.20406 34.5188L5.71848 30.8049ZM5.33503 30.8923C5.22197 30.9232 5.09283 30.9419 4.94127 30.9419V34.9419C5.42971 34.9419 5.9139 34.8806 6.38751 34.7514L5.33503 30.8923ZM4.94127 30.9419C4.86204 30.9419 4.80275 30.9378 4.76095 30.9329C4.71908 30.928 4.69933 30.9228 4.6975 30.9223C4.69425 30.9215 4.77764 30.9439 4.88775 31.034L2.35479 34.1298C3.15517 34.7846 4.1329 34.9419 4.94127 34.9419V30.9419ZM4.79761 30.9644C4.99119 31.1052 5.10206 31.2815 5.15277 31.4106C5.19566 31.5197 5.18127 31.5561 5.18127 31.4619H1.18127C1.18127 32.3188 1.42271 33.4559 2.44493 34.1993L4.79761 30.9644ZM5.18127 31.4619V18.4619L1.18127 18.4619V31.4619H5.18127Z" fill="#00FFA3"/>
</svg>
